<svg width="92" height="92" viewBox="0 0 92 92" fill="none" xmlns="http://www.w3.org/2000/svg">
<path d="M88.0301 91.6853H34.8268C29.39 91.6853 24.1759 89.5255 20.3315 85.6812C16.4871 81.8368 14.3274 76.6227 14.3274 71.1859C14.3274 65.7491 16.4871 60.535 20.3315 56.6906C24.1759 52.8462 29.39 50.6865 34.8268 50.6865H88.0301C89.001 50.6865 89.9321 51.0721 90.6186 51.7586C91.3051 52.4451 91.6907 53.3762 91.6907 54.3471C91.6907 55.3179 91.3051 56.249 90.6186 56.9355C89.9321 57.622 89.001 58.0077 88.0301 58.0077H34.8268C31.3317 58.0077 27.9798 59.3961 25.5084 61.8675C23.037 64.3389 21.6486 67.6908 21.6486 71.1859C21.6486 74.681 23.037 78.0329 25.5084 80.5043C27.9798 82.9757 31.3317 84.3641 34.8268 84.3641H88.0301C89.001 84.3641 89.9321 84.7497 90.6186 85.4362C91.3051 86.1227 91.6907 87.0538 91.6907 88.0247C91.6907 88.9955 91.3051 89.9266 90.6186 90.6131C89.9321 91.2996 89.001 91.6853 88.0301 91.6853Z" fill="url(#paint0_linear_22_1638)"/>
<path d="M82.821 81.4832C82.1365 81.4859 81.4649 81.2966 80.8826 80.9369C80.3002 80.5771 79.8304 80.0612 79.5265 79.4479L52.9761 25.9188L43.1766 45.4738C42.9603 45.9035 42.6614 46.2865 42.2971 46.6007C41.9328 46.915 41.5101 47.1544 41.0533 47.3054C40.5964 47.4563 40.1143 47.5157 39.6345 47.4804C39.1547 47.445 38.6865 47.3154 38.2567 47.0991C37.827 46.8828 37.444 46.5839 37.1298 46.2196C36.8155 45.8553 36.5761 45.4326 36.4252 44.9758C36.2742 44.5189 36.2148 44.0368 36.2502 43.557C36.2856 43.0771 36.4151 42.609 36.6314 42.1792L49.7145 16.0717C50.0188 15.4645 50.486 14.9538 51.064 14.597C51.6419 14.2401 52.3078 14.0511 52.987 14.0511C53.6678 14.0525 54.3347 14.2437 54.9129 14.6032C55.491 14.9627 55.9574 15.4764 56.2596 16.0864L86.0863 76.1936C86.3635 76.7516 86.4938 77.371 86.4647 77.9934C86.4356 78.6158 86.2482 79.2204 85.9201 79.7501C85.5921 80.2798 85.1342 80.7169 84.59 81.0202C84.0457 81.3235 83.4331 81.4829 82.81 81.4832H82.821Z" fill="url(#paint1_linear_22_1638)"/>
<path d="M88.0301 84.3641H34.8268C31.3317 84.3641 27.9798 82.9757 25.5084 80.5043C23.037 78.0329 21.6486 74.681 21.6486 71.1859C21.6486 67.6908 23.037 64.3389 25.5084 61.8675C27.9798 59.3961 31.3317 58.0077 34.8268 58.0077H68.8998L79.5412 79.4479C79.7481 79.8894 80.0412 80.2851 80.4032 80.6118C80.7653 80.9384 81.1889 81.1895 81.6492 81.3502C82.1096 81.5108 82.5974 81.5779 83.0841 81.5475C83.5707 81.5171 84.0464 81.3897 84.4832 81.1729C84.9199 80.9561 85.309 80.6543 85.6275 80.2851C85.9459 79.9158 86.1875 79.4867 86.3378 79.0229C86.4882 78.559 86.5444 78.0698 86.5031 77.584C86.4618 77.0981 86.3238 76.6254 86.0973 76.1936L77.0739 58.0077H88.0301C89.001 58.0077 89.9321 57.622 90.6186 56.9355C91.3051 56.249 91.6907 55.318 91.6907 54.3471C91.6907 53.3762 91.3051 52.4452 90.6186 51.7587C89.9321 51.0722 89.001 50.6865 88.0301 50.6865H73.4389L56.2707 16.0864C55.9684 15.4764 55.502 14.9628 54.9239 14.6032C54.3458 14.2437 53.6789 14.0525 52.9981 14.0511C52.317 14.0491 51.6488 14.2371 51.0687 14.5941C50.4886 14.9511 50.0197 15.4628 49.7145 16.0718L36.6278 42.1902C36.1909 43.0582 36.1167 44.0641 36.4215 44.9868C36.7264 45.9094 37.3852 46.6732 38.2531 47.1101C39.1211 47.547 40.127 47.6212 41.0497 47.3164C41.9723 47.0116 42.7361 46.3527 43.173 45.4848L52.9761 25.9188L65.2684 50.6901H34.8268C32.1348 50.6901 29.4691 51.2204 26.982 52.2506C24.4949 53.2808 22.2351 54.7907 20.3315 56.6943C18.428 58.5978 16.918 60.8577 15.8878 63.3448C14.8576 65.8319 14.3274 68.4975 14.3274 71.1896C14.3274 73.8816 14.8576 76.5473 15.8878 79.0344C16.918 81.5215 18.428 83.7813 20.3315 85.6848C22.2351 87.5884 24.4949 89.0984 26.982 90.1286C29.4691 91.1587 32.1348 91.689 34.8268 91.689H88.0301C89.001 91.689 89.9321 91.3033 90.6186 90.6168C91.3051 89.9303 91.6907 88.9992 91.6907 88.0284C91.6907 87.0575 91.3051 86.1264 90.6186 85.4399C89.9321 84.7534 89.001 84.3678 88.0301 84.3678V84.3641Z" stroke="#80D4C6" stroke-width="0.5" stroke-miterlimit="10"/>
<path d="M29.0152 72.7486C28.7505 72.2107 28.6266 71.6145 28.6553 71.0162C28.6839 70.418 28.8642 69.8374 29.179 69.3292C29.4937 68.821 29.9327 68.4019 30.4545 68.1116C30.9763 67.8212 31.5637 67.6691 32.1613 67.6696L52.3402 67.7133C52.82 67.6832 53.3012 67.7522 53.754 67.916C54.2068 68.0798 54.6215 68.3349 54.9725 68.6654C55.3235 68.996 55.6034 69.3951 55.7947 69.8379C55.9861 70.2807 56.0848 70.7579 56.0849 71.24C56.085 71.722 55.9864 72.1986 55.7953 72.6403C55.6041 73.082 55.3244 73.4794 54.9736 73.8079C54.6227 74.1364 54.208 74.389 53.7553 74.5501C53.3026 74.7112 52.8214 74.7774 52.3416 74.7445L32.179 74.7091C31.5225 74.711 30.878 74.5282 30.3187 74.1817C29.7595 73.8351 29.3079 73.3386 29.0152 72.7486Z" fill="url(#paint2_linear_22_1638)"/>
<path d="M28.7776 72.7543C28.5105 72.2076 28.387 71.6018 28.4189 70.9942C28.4507 70.3865 28.6368 69.797 28.9596 69.2811C29.2824 68.7653 29.7313 68.3402 30.2639 68.046C30.7965 67.7517 31.3953 67.5979 32.0038 67.5991L52.5506 67.6692C53.0393 67.6393 53.529 67.71 53.9893 67.8769C54.4496 68.0439 54.8708 68.3035 55.2267 68.6397C55.5827 68.976 55.8658 69.3817 56.0587 69.8317C56.2515 70.2818 56.35 70.7667 56.3479 71.2563C56.3459 71.746 56.2434 72.23 56.0467 72.6784C55.8501 73.1268 55.5635 73.5302 55.2048 73.8634C54.846 74.1966 54.4227 74.4527 53.961 74.6158C53.4993 74.7789 53.0091 74.8455 52.5206 74.8114L31.9904 74.7498C31.3219 74.7509 30.6664 74.5645 30.0985 74.2117C29.5306 73.859 29.073 73.3541 28.7776 72.7543Z" stroke="#80D4C6" stroke-width="0.5" stroke-miterlimit="10"/>
<path d="M66.5056 71.2106C66.5047 72.0997 66.1511 72.9521 65.5225 73.5808C64.8938 74.2094 64.0414 74.563 63.1523 74.564C62.9322 74.5644 62.7126 74.5422 62.497 74.4977C62.2821 74.4546 62.0719 74.3904 61.8696 74.306C61.6676 74.2219 61.4739 74.1192 61.2909 73.9993C61.1076 73.8774 60.937 73.7373 60.782 73.581C60.6259 73.4258 60.4857 73.2553 60.3637 73.072C60.2438 72.8891 60.1411 72.6954 60.057 72.4934C59.9726 72.2911 59.9084 72.0809 59.8652 71.866C59.7603 71.3251 59.7889 70.7668 59.9487 70.2395C60.1084 69.7122 60.3945 69.2319 60.782 68.8403C60.937 68.684 61.1076 68.5438 61.2909 68.422C61.4739 68.3021 61.6676 68.1994 61.8696 68.1153C62.0719 68.0309 62.2821 67.9667 62.497 67.9235C62.7126 67.8791 62.9322 67.8569 63.1523 67.8573C64.0411 67.8597 64.893 68.213 65.5227 68.8403C65.6798 68.9946 65.82 69.1652 65.941 69.3492C66.062 69.5321 66.1659 69.7258 66.2512 69.9279C66.3344 70.1303 66.3975 70.3405 66.4394 70.5553C66.484 70.7709 66.5062 70.9905 66.5056 71.2106Z" fill="url(#paint3_radial_22_1638)"/>
<path d="M63.1582 67.6188C64.1113 67.6198 65.025 67.9991 65.6986 68.6733C66.3721 69.3476 66.7505 70.2617 66.7505 71.2148C66.7509 71.4506 66.7271 71.6858 66.6795 71.9168C66.6333 72.147 66.5645 72.3722 66.4742 72.5889C66.3841 72.8053 66.2741 73.0128 66.1456 73.2088C66.015 73.4052 65.8649 73.5879 65.6975 73.754C65.5289 73.9216 65.3437 74.0718 65.1448 74.2021C64.9488 74.3306 64.7413 74.4406 64.5249 74.5307C64.3082 74.621 64.083 74.6898 63.8528 74.7361C63.2734 74.8485 62.6753 74.8178 62.1105 74.6467C61.5456 74.4756 61.0311 74.1691 60.6115 73.754C60.4441 73.5879 60.294 73.4052 60.1635 73.2088C60.035 73.0128 59.9249 72.8053 59.8349 72.5889C59.7445 72.3722 59.6757 72.147 59.6295 71.9168C59.5819 71.6858 59.5581 71.4506 59.5585 71.2148C59.561 70.2626 59.9395 69.35 60.6115 68.6755C60.7768 68.5072 60.9596 68.357 61.1567 68.2274C61.3526 68.0977 61.5602 67.9865 61.7766 67.8951C61.9935 67.806 62.2186 67.7384 62.4488 67.6935C62.682 67.6439 62.9198 67.6189 63.1582 67.6188Z" stroke="#80D4C6" stroke-width="0.5" stroke-miterlimit="10"/>
<defs>
<linearGradient id="paint0_linear_22_1638" x1="14.3274" y1="71.1859" x2="91.6907" y2="71.1859" gradientUnits="userSpaceOnUse">
<stop stop-color="#0CBC84" stop-opacity="0.85"/>
<stop offset="0.17" stop-color="#0CBC84" stop-opacity="0.6"/>
<stop offset="0.4" stop-color="#0CBC84" stop-opacity="0.45"/>
<stop offset="0.68" stop-color="#7FA5EC"/>
<stop offset="0.99" stop-color="#787AF6"/>
<stop offset="1" stop-color="#7879F6"/>
</linearGradient>
<linearGradient id="paint1_linear_22_1638" x1="36.2434" y1="47.7653" x2="86.478" y2="47.7653" gradientUnits="userSpaceOnUse">
<stop stop-color="#7879F6"/>
<stop offset="0.01" stop-color="#787AF6"/>
<stop offset="0.32" stop-color="#7FA5EC"/>
<stop offset="0.6" stop-color="#0CBC84" stop-opacity="0.45"/>
<stop offset="0.83" stop-color="#0CBC84" stop-opacity="0.6"/>
<stop offset="1" stop-color="#0CBC84" stop-opacity="0.85"/>
</linearGradient>
<linearGradient id="paint2_linear_22_1638" x1="38.7049" y1="64.0268" x2="45.8078" y2="78.3988" gradientUnits="userSpaceOnUse">
<stop stop-color="#86DEC2"/>
<stop offset="0.17" stop-color="#82DDC0"/>
<stop offset="0.4" stop-color="#80DCBE"/>
<stop offset="0.68" stop-color="#7FA5EC"/>
<stop offset="0.99" stop-color="#787AF6"/>
<stop offset="1" stop-color="#7879F6"/>
</linearGradient>
<radialGradient id="paint3_radial_22_1638" cx="0" cy="0" r="1" gradientUnits="userSpaceOnUse" gradientTransform="translate(61.7406 71.1618) rotate(-90) scale(4.67792 4.67791)">
<stop stop-color="#87DDDE"/>
<stop offset="0.0001" stop-color="#7ACBC8"/>
<stop offset="0.17" stop-color="#79C8CA"/>
<stop offset="0.4" stop-color="#83C3E4"/>
<stop offset="0.68" stop-color="#7FA5EC"/>
<stop offset="0.99" stop-color="#787AF6"/>
<stop offset="1" stop-color="#7879F6"/>
</radialGradient>
</defs>
</svg>
